<mxfile host="app.diagrams.net" modified="2022-05-27T14:17:54.708Z" agent="5.0 (Windows NT 10.0; Win64; x64) AppleWebKit/537.36 (KHTML, like Gecko) Chrome/102.0.5005.61 Safari/537.36" etag="DQcNP2gXjGJFxSc_VzmA" version="18.1.3" type="github">
  <diagram id="kgpKYQtTHZ0yAKxKKP6v" name="Page-1">
    <mxGraphModel dx="1038" dy="571" grid="1" gridSize="10" guides="1" tooltips="1" connect="1" arrows="1" fold="1" page="1" pageScale="1" pageWidth="850" pageHeight="1100" math="0" shadow="0">
      <root>
        <mxCell id="0" />
        <mxCell id="1" parent="0" />
        <mxCell id="3nuBFxr9cyL0pnOWT2aG-1" value="Login User" style="shape=umlLifeline;perimeter=lifelinePerimeter;container=1;collapsible=0;recursiveResize=0;rounded=0;shadow=0;strokeWidth=1;fillColor=#f8cecc;strokeColor=#b85450;" parent="1" vertex="1">
          <mxGeometry x="120" y="80" width="100" height="420" as="geometry" />
        </mxCell>
        <mxCell id="3nuBFxr9cyL0pnOWT2aG-2" value="" style="points=[];perimeter=orthogonalPerimeter;rounded=0;shadow=0;strokeWidth=1;" parent="3nuBFxr9cyL0pnOWT2aG-1" vertex="1">
          <mxGeometry x="45" y="70" width="10" height="300" as="geometry" />
        </mxCell>
        <mxCell id="3nuBFxr9cyL0pnOWT2aG-3" value="dispatch" style="verticalAlign=bottom;startArrow=oval;endArrow=block;startSize=8;shadow=0;strokeWidth=1;" parent="3nuBFxr9cyL0pnOWT2aG-1" target="3nuBFxr9cyL0pnOWT2aG-2" edge="1">
          <mxGeometry relative="1" as="geometry">
            <mxPoint x="-15" y="70" as="sourcePoint" />
          </mxGeometry>
        </mxCell>
        <mxCell id="3nuBFxr9cyL0pnOWT2aG-4" value="" style="points=[];perimeter=orthogonalPerimeter;rounded=0;shadow=0;strokeWidth=1;" parent="3nuBFxr9cyL0pnOWT2aG-1" vertex="1">
          <mxGeometry x="50" y="120" width="10" height="210" as="geometry" />
        </mxCell>
        <mxCell id="Qq_WGgC-rXSd1wwkI7IG-11" value="" style="endArrow=classic;html=1;rounded=0;" parent="3nuBFxr9cyL0pnOWT2aG-1" target="Qq_WGgC-rXSd1wwkI7IG-7" edge="1">
          <mxGeometry width="50" height="50" relative="1" as="geometry">
            <mxPoint x="60" y="160" as="sourcePoint" />
            <mxPoint x="110" y="110" as="targetPoint" />
            <Array as="points">
              <mxPoint x="200" y="160" />
            </Array>
          </mxGeometry>
        </mxCell>
        <mxCell id="3nuBFxr9cyL0pnOWT2aG-5" value="Doctor&#39;s &#xa;Management" style="shape=umlLifeline;perimeter=lifelinePerimeter;container=1;collapsible=0;recursiveResize=0;rounded=0;shadow=0;strokeWidth=1;fillColor=#dae8fc;strokeColor=#6c8ebf;" parent="1" vertex="1">
          <mxGeometry x="300" y="80" width="100" height="420" as="geometry" />
        </mxCell>
        <mxCell id="3nuBFxr9cyL0pnOWT2aG-6" value="" style="points=[];perimeter=orthogonalPerimeter;rounded=0;shadow=0;strokeWidth=1;" parent="3nuBFxr9cyL0pnOWT2aG-5" vertex="1">
          <mxGeometry x="45" y="80" width="10" height="300" as="geometry" />
        </mxCell>
        <mxCell id="Qq_WGgC-rXSd1wwkI7IG-36" value="updateDoctor()" style="verticalAlign=bottom;endArrow=block;shadow=0;strokeWidth=1;" parent="3nuBFxr9cyL0pnOWT2aG-5" edge="1">
          <mxGeometry x="0.2381" y="-10" relative="1" as="geometry">
            <mxPoint x="65" y="140" as="sourcePoint" />
            <mxPoint x="60" y="170" as="targetPoint" />
            <Array as="points">
              <mxPoint x="100" y="140" />
              <mxPoint x="100" y="170" />
            </Array>
            <mxPoint x="10" y="10" as="offset" />
          </mxGeometry>
        </mxCell>
        <mxCell id="Qq_WGgC-rXSd1wwkI7IG-37" value="deleteDoctor()" style="verticalAlign=bottom;endArrow=block;shadow=0;strokeWidth=1;" parent="3nuBFxr9cyL0pnOWT2aG-5" edge="1">
          <mxGeometry x="0.1429" y="5" relative="1" as="geometry">
            <mxPoint x="60" y="195" as="sourcePoint" />
            <mxPoint x="55" y="225" as="targetPoint" />
            <Array as="points">
              <mxPoint x="95" y="195" />
              <mxPoint x="95" y="225" />
            </Array>
            <mxPoint as="offset" />
          </mxGeometry>
        </mxCell>
        <mxCell id="3nuBFxr9cyL0pnOWT2aG-7" value="return" style="verticalAlign=bottom;endArrow=open;dashed=1;endSize=8;exitX=0;exitY=0.95;shadow=0;strokeWidth=1;" parent="1" source="3nuBFxr9cyL0pnOWT2aG-6" target="3nuBFxr9cyL0pnOWT2aG-2" edge="1">
          <mxGeometry relative="1" as="geometry">
            <mxPoint x="275" y="236" as="targetPoint" />
          </mxGeometry>
        </mxCell>
        <mxCell id="3nuBFxr9cyL0pnOWT2aG-9" value="addDoctor()" style="verticalAlign=bottom;endArrow=block;shadow=0;strokeWidth=1;" parent="1" source="3nuBFxr9cyL0pnOWT2aG-6" edge="1">
          <mxGeometry relative="1" as="geometry">
            <mxPoint x="240" y="200" as="sourcePoint" />
            <mxPoint x="350" y="200" as="targetPoint" />
            <Array as="points">
              <mxPoint x="390" y="170" />
              <mxPoint x="390" y="200" />
            </Array>
          </mxGeometry>
        </mxCell>
        <mxCell id="3nuBFxr9cyL0pnOWT2aG-10" value="Patient&#39;s details" style="verticalAlign=bottom;endArrow=open;dashed=1;endSize=8;exitX=1;exitY=0.95;shadow=0;strokeWidth=1;" parent="1" source="3nuBFxr9cyL0pnOWT2aG-4" target="Qq_WGgC-rXSd1wwkI7IG-7" edge="1">
          <mxGeometry x="-0.1599" y="160" relative="1" as="geometry">
            <mxPoint x="240" y="257" as="targetPoint" />
            <mxPoint y="1" as="offset" />
          </mxGeometry>
        </mxCell>
        <mxCell id="Qq_WGgC-rXSd1wwkI7IG-10" style="edgeStyle=orthogonalEdgeStyle;rounded=0;orthogonalLoop=1;jettySize=auto;html=1;exitX=0.5;exitY=0.5;exitDx=0;exitDy=0;exitPerimeter=0;entryX=-0.06;entryY=0.067;entryDx=0;entryDy=0;entryPerimeter=0;" parent="1" source="Qq_WGgC-rXSd1wwkI7IG-1" target="3nuBFxr9cyL0pnOWT2aG-2" edge="1">
          <mxGeometry relative="1" as="geometry" />
        </mxCell>
        <mxCell id="Qq_WGgC-rXSd1wwkI7IG-1" value="Actor" style="shape=umlActor;verticalLabelPosition=bottom;verticalAlign=top;html=1;outlineConnect=0;" parent="1" vertex="1">
          <mxGeometry x="50" y="140" width="30" height="60" as="geometry" />
        </mxCell>
        <mxCell id="Qq_WGgC-rXSd1wwkI7IG-5" value="Schedule&#39;s report" style="shape=umlLifeline;perimeter=lifelinePerimeter;container=1;collapsible=0;recursiveResize=0;rounded=0;shadow=0;strokeWidth=1;fillColor=#e1d5e7;strokeColor=#9673a6;" parent="1" vertex="1">
          <mxGeometry x="580" y="80" width="100" height="420" as="geometry" />
        </mxCell>
        <mxCell id="Qq_WGgC-rXSd1wwkI7IG-6" value="" style="points=[];perimeter=orthogonalPerimeter;rounded=0;shadow=0;strokeWidth=1;" parent="Qq_WGgC-rXSd1wwkI7IG-5" vertex="1">
          <mxGeometry x="45" y="80" width="10" height="300" as="geometry" />
        </mxCell>
        <mxCell id="Qq_WGgC-rXSd1wwkI7IG-22" value="addSchedule()" style="verticalAlign=bottom;endArrow=block;shadow=0;strokeWidth=1;" parent="Qq_WGgC-rXSd1wwkI7IG-5" edge="1">
          <mxGeometry x="0.0476" y="15" relative="1" as="geometry">
            <mxPoint x="60" y="90" as="sourcePoint" />
            <mxPoint x="55" y="120" as="targetPoint" />
            <Array as="points">
              <mxPoint x="95" y="90" />
              <mxPoint x="95" y="120" />
            </Array>
            <mxPoint as="offset" />
          </mxGeometry>
        </mxCell>
        <mxCell id="Qq_WGgC-rXSd1wwkI7IG-24" value="updateSchedule()" style="verticalAlign=bottom;endArrow=block;shadow=0;strokeWidth=1;" parent="Qq_WGgC-rXSd1wwkI7IG-5" edge="1">
          <mxGeometry x="0.0476" y="25" relative="1" as="geometry">
            <mxPoint x="60" y="140" as="sourcePoint" />
            <mxPoint x="55" y="170" as="targetPoint" />
            <Array as="points">
              <mxPoint x="95" y="140" />
              <mxPoint x="95" y="170" />
            </Array>
            <mxPoint as="offset" />
          </mxGeometry>
        </mxCell>
        <mxCell id="Qq_WGgC-rXSd1wwkI7IG-25" value="deleteSchedule()" style="verticalAlign=bottom;endArrow=block;shadow=0;strokeWidth=1;" parent="Qq_WGgC-rXSd1wwkI7IG-5" edge="1">
          <mxGeometry x="0.0476" y="15" relative="1" as="geometry">
            <mxPoint x="60" y="190" as="sourcePoint" />
            <mxPoint x="55" y="220" as="targetPoint" />
            <Array as="points">
              <mxPoint x="95" y="190" />
              <mxPoint x="95" y="220" />
            </Array>
            <mxPoint as="offset" />
          </mxGeometry>
        </mxCell>
        <mxCell id="Qq_WGgC-rXSd1wwkI7IG-7" value="Patient&#39;&#xa;Â Management" style="shape=umlLifeline;perimeter=lifelinePerimeter;container=1;collapsible=0;recursiveResize=0;rounded=0;shadow=0;strokeWidth=1;fillColor=#d5e8d4;strokeColor=#82b366;" parent="1" vertex="1">
          <mxGeometry x="440" y="80" width="100" height="420" as="geometry" />
        </mxCell>
        <mxCell id="Qq_WGgC-rXSd1wwkI7IG-8" value="" style="points=[];perimeter=orthogonalPerimeter;rounded=0;shadow=0;strokeWidth=1;" parent="Qq_WGgC-rXSd1wwkI7IG-7" vertex="1">
          <mxGeometry x="45" y="80" width="10" height="300" as="geometry" />
        </mxCell>
        <mxCell id="Qq_WGgC-rXSd1wwkI7IG-20" value="addPatient()" style="verticalAlign=bottom;endArrow=block;shadow=0;strokeWidth=1;" parent="Qq_WGgC-rXSd1wwkI7IG-7" edge="1">
          <mxGeometry x="0.0476" y="15" relative="1" as="geometry">
            <mxPoint x="60" y="90" as="sourcePoint" />
            <mxPoint x="55" y="120" as="targetPoint" />
            <Array as="points">
              <mxPoint x="95" y="90" />
              <mxPoint x="95" y="120" />
            </Array>
            <mxPoint as="offset" />
          </mxGeometry>
        </mxCell>
        <mxCell id="Qq_WGgC-rXSd1wwkI7IG-34" value="updatePatient()" style="verticalAlign=bottom;endArrow=block;shadow=0;strokeWidth=1;" parent="Qq_WGgC-rXSd1wwkI7IG-7" edge="1">
          <mxGeometry x="0.0476" y="15" relative="1" as="geometry">
            <mxPoint x="60" y="140" as="sourcePoint" />
            <mxPoint x="55" y="170" as="targetPoint" />
            <Array as="points">
              <mxPoint x="95" y="140" />
              <mxPoint x="95" y="170" />
            </Array>
            <mxPoint as="offset" />
          </mxGeometry>
        </mxCell>
        <mxCell id="Qq_WGgC-rXSd1wwkI7IG-35" value="deletePatient()" style="verticalAlign=bottom;endArrow=block;shadow=0;strokeWidth=1;" parent="Qq_WGgC-rXSd1wwkI7IG-7" edge="1">
          <mxGeometry x="0.2381" y="-10" relative="1" as="geometry">
            <mxPoint x="65" y="190" as="sourcePoint" />
            <mxPoint x="60" y="220" as="targetPoint" />
            <Array as="points">
              <mxPoint x="100" y="190" />
              <mxPoint x="100" y="220" />
            </Array>
            <mxPoint x="10" y="10" as="offset" />
          </mxGeometry>
        </mxCell>
        <mxCell id="Qq_WGgC-rXSd1wwkI7IG-12" value="" style="endArrow=classic;html=1;rounded=0;exitX=1.2;exitY=0.609;exitDx=0;exitDy=0;exitPerimeter=0;entryX=-0.38;entryY=0.565;entryDx=0;entryDy=0;entryPerimeter=0;" parent="1" source="3nuBFxr9cyL0pnOWT2aG-4" target="3nuBFxr9cyL0pnOWT2aG-6" edge="1">
          <mxGeometry width="50" height="50" relative="1" as="geometry">
            <mxPoint x="310" y="330" as="sourcePoint" />
            <mxPoint x="619.5" y="330" as="targetPoint" />
            <Array as="points" />
          </mxGeometry>
        </mxCell>
        <mxCell id="Qq_WGgC-rXSd1wwkI7IG-19" value="Doctor&#39;s details" style="verticalAlign=bottom;endArrow=open;dashed=1;endSize=8;exitX=1;exitY=0.95;shadow=0;strokeWidth=1;" parent="1" edge="1">
          <mxGeometry x="-0.5477" y="80" relative="1" as="geometry">
            <mxPoint x="499.5" y="409.5" as="targetPoint" />
            <mxPoint x="190" y="409.5" as="sourcePoint" />
            <mxPoint y="1" as="offset" />
          </mxGeometry>
        </mxCell>
        <mxCell id="Qq_WGgC-rXSd1wwkI7IG-26" value="" style="endArrow=classic;html=1;rounded=0;" parent="1" source="3nuBFxr9cyL0pnOWT2aG-5" target="Qq_WGgC-rXSd1wwkI7IG-7" edge="1">
          <mxGeometry width="50" height="50" relative="1" as="geometry">
            <mxPoint x="360" y="300" as="sourcePoint" />
            <mxPoint x="619.5" y="330" as="targetPoint" />
            <Array as="points">
              <mxPoint x="420" y="350" />
              <mxPoint x="470" y="350" />
            </Array>
          </mxGeometry>
        </mxCell>
        <mxCell id="Qq_WGgC-rXSd1wwkI7IG-27" value="getPatient()" style="edgeLabel;html=1;align=center;verticalAlign=middle;resizable=0;points=[];" parent="Qq_WGgC-rXSd1wwkI7IG-26" vertex="1" connectable="0">
          <mxGeometry x="-0.2297" relative="1" as="geometry">
            <mxPoint x="17" as="offset" />
          </mxGeometry>
        </mxCell>
        <mxCell id="Qq_WGgC-rXSd1wwkI7IG-14" value="" style="endArrow=classic;html=1;rounded=0;" parent="1" source="3nuBFxr9cyL0pnOWT2aG-5" target="Qq_WGgC-rXSd1wwkI7IG-5" edge="1">
          <mxGeometry width="50" height="50" relative="1" as="geometry">
            <mxPoint x="355" y="280" as="sourcePoint" />
            <mxPoint x="514.2" y="281.61" as="targetPoint" />
            <Array as="points">
              <mxPoint x="480" y="320" />
            </Array>
          </mxGeometry>
        </mxCell>
        <mxCell id="Qq_WGgC-rXSd1wwkI7IG-41" value="availableTime()" style="edgeLabel;html=1;align=center;verticalAlign=middle;resizable=0;points=[];" parent="Qq_WGgC-rXSd1wwkI7IG-14" vertex="1" connectable="0">
          <mxGeometry x="0.3236" relative="1" as="geometry">
            <mxPoint as="offset" />
          </mxGeometry>
        </mxCell>
        <mxCell id="Qq_WGgC-rXSd1wwkI7IG-13" value="" style="endArrow=classic;html=1;rounded=0;exitX=1.14;exitY=0.669;exitDx=0;exitDy=0;exitPerimeter=0;" parent="1" source="Qq_WGgC-rXSd1wwkI7IG-8" target="Qq_WGgC-rXSd1wwkI7IG-5" edge="1">
          <mxGeometry width="50" height="50" relative="1" as="geometry">
            <mxPoint x="310" y="330" as="sourcePoint" />
            <mxPoint x="619.5" y="330" as="targetPoint" />
            <Array as="points" />
          </mxGeometry>
        </mxCell>
        <mxCell id="Qq_WGgC-rXSd1wwkI7IG-42" value="availableTime()" style="edgeLabel;html=1;align=center;verticalAlign=middle;resizable=0;points=[];" parent="Qq_WGgC-rXSd1wwkI7IG-13" vertex="1" connectable="0">
          <mxGeometry x="-0.408" y="-1" relative="1" as="geometry">
            <mxPoint as="offset" />
          </mxGeometry>
        </mxCell>
        <mxCell id="Qq_WGgC-rXSd1wwkI7IG-48" value="Vertical Container" style="swimlane;" parent="1" vertex="1">
          <mxGeometry x="20" y="560" width="800" height="530" as="geometry" />
        </mxCell>
        <mxCell id="FrTpG5TBYNztIclUgN3H-2" style="edgeStyle=orthogonalEdgeStyle;rounded=0;orthogonalLoop=1;jettySize=auto;html=1;" edge="1" parent="Qq_WGgC-rXSd1wwkI7IG-48" source="Qq_WGgC-rXSd1wwkI7IG-49" target="Qq_WGgC-rXSd1wwkI7IG-50">
          <mxGeometry relative="1" as="geometry" />
        </mxCell>
        <mxCell id="FrTpG5TBYNztIclUgN3H-22" style="edgeStyle=orthogonalEdgeStyle;rounded=0;orthogonalLoop=1;jettySize=auto;html=1;entryX=0.446;entryY=0;entryDx=0;entryDy=0;entryPerimeter=0;" edge="1" parent="Qq_WGgC-rXSd1wwkI7IG-48" source="Qq_WGgC-rXSd1wwkI7IG-49" target="Qq_WGgC-rXSd1wwkI7IG-51">
          <mxGeometry relative="1" as="geometry" />
        </mxCell>
        <mxCell id="Qq_WGgC-rXSd1wwkI7IG-49" value="API Gateway" style="swimlane;" parent="Qq_WGgC-rXSd1wwkI7IG-48" vertex="1">
          <mxGeometry x="315" y="40" width="140" height="60" as="geometry" />
        </mxCell>
        <mxCell id="FrTpG5TBYNztIclUgN3H-27" style="edgeStyle=orthogonalEdgeStyle;rounded=0;orthogonalLoop=1;jettySize=auto;html=1;" edge="1" parent="Qq_WGgC-rXSd1wwkI7IG-48" source="Qq_WGgC-rXSd1wwkI7IG-50" target="FrTpG5TBYNztIclUgN3H-26">
          <mxGeometry relative="1" as="geometry">
            <Array as="points">
              <mxPoint x="135" y="260" />
              <mxPoint x="135" y="260" />
            </Array>
          </mxGeometry>
        </mxCell>
        <mxCell id="Qq_WGgC-rXSd1wwkI7IG-50" value="Patient" style="swimlane;startSize=23;" parent="Qq_WGgC-rXSd1wwkI7IG-48" vertex="1">
          <mxGeometry x="50" y="110" width="200" height="120" as="geometry" />
        </mxCell>
        <mxCell id="Qq_WGgC-rXSd1wwkI7IG-51" value="Content" style="swimlane;" parent="Qq_WGgC-rXSd1wwkI7IG-48" vertex="1">
          <mxGeometry x="260" y="160" width="280" height="140" as="geometry" />
        </mxCell>
        <mxCell id="FrTpG5TBYNztIclUgN3H-12" value="Ranking&lt;br&gt;&amp;nbsp;Doctor&#39;s Blog&lt;br&gt;Patient Blog&lt;br&gt;Payment System&lt;br&gt;Consultating&lt;br&gt;Medicins&lt;br&gt;Pharmacy&amp;nbsp;" style="shape=note;whiteSpace=wrap;html=1;backgroundOutline=1;darkOpacity=0.05;size=12;" vertex="1" parent="Qq_WGgC-rXSd1wwkI7IG-51">
          <mxGeometry x="15" y="30" width="250" height="100" as="geometry" />
        </mxCell>
        <mxCell id="FrTpG5TBYNztIclUgN3H-17" style="edgeStyle=orthogonalEdgeStyle;rounded=0;orthogonalLoop=1;jettySize=auto;html=1;entryX=1;entryY=0.5;entryDx=0;entryDy=0;" edge="1" parent="Qq_WGgC-rXSd1wwkI7IG-48" source="Qq_WGgC-rXSd1wwkI7IG-52" target="FrTpG5TBYNztIclUgN3H-8">
          <mxGeometry relative="1" as="geometry">
            <Array as="points">
              <mxPoint x="680" y="320" />
              <mxPoint x="460" y="320" />
            </Array>
          </mxGeometry>
        </mxCell>
        <mxCell id="Qq_WGgC-rXSd1wwkI7IG-52" value="Doctor" style="swimlane;startSize=23;" parent="Qq_WGgC-rXSd1wwkI7IG-48" vertex="1">
          <mxGeometry x="600" y="120" width="160" height="120" as="geometry" />
        </mxCell>
        <mxCell id="FrTpG5TBYNztIclUgN3H-1" style="edgeStyle=orthogonalEdgeStyle;rounded=0;orthogonalLoop=1;jettySize=auto;html=1;" edge="1" parent="Qq_WGgC-rXSd1wwkI7IG-48" source="Qq_WGgC-rXSd1wwkI7IG-49" target="Qq_WGgC-rXSd1wwkI7IG-52">
          <mxGeometry relative="1" as="geometry">
            <mxPoint x="750" y="70" as="targetPoint" />
            <Array as="points">
              <mxPoint x="680" y="70" />
            </Array>
          </mxGeometry>
        </mxCell>
        <mxCell id="FrTpG5TBYNztIclUgN3H-8" value="Online/ Offline Consultatind" style="swimlane;" vertex="1" parent="Qq_WGgC-rXSd1wwkI7IG-48">
          <mxGeometry x="260" y="310" width="200" height="120" as="geometry" />
        </mxCell>
        <mxCell id="FrTpG5TBYNztIclUgN3H-14" value="zoom" style="rounded=0;whiteSpace=wrap;html=1;" vertex="1" parent="FrTpG5TBYNztIclUgN3H-8">
          <mxGeometry x="10" y="30" width="80" height="80" as="geometry" />
        </mxCell>
        <mxCell id="FrTpG5TBYNztIclUgN3H-15" value="Timing" style="rounded=0;whiteSpace=wrap;html=1;" vertex="1" parent="FrTpG5TBYNztIclUgN3H-8">
          <mxGeometry x="100" y="30" width="90" height="80" as="geometry" />
        </mxCell>
        <mxCell id="FrTpG5TBYNztIclUgN3H-16" style="edgeStyle=orthogonalEdgeStyle;rounded=0;orthogonalLoop=1;jettySize=auto;html=1;entryX=-0.006;entryY=0.195;entryDx=0;entryDy=0;entryPerimeter=0;" edge="1" parent="Qq_WGgC-rXSd1wwkI7IG-48" source="Qq_WGgC-rXSd1wwkI7IG-50" target="FrTpG5TBYNztIclUgN3H-8">
          <mxGeometry relative="1" as="geometry">
            <mxPoint x="250" y="360" as="targetPoint" />
            <Array as="points">
              <mxPoint x="150" y="330" />
              <mxPoint x="250" y="330" />
              <mxPoint x="250" y="333" />
            </Array>
          </mxGeometry>
        </mxCell>
        <mxCell id="FrTpG5TBYNztIclUgN3H-18" value="Pharmacy" style="swimlane;startSize=23;" vertex="1" parent="Qq_WGgC-rXSd1wwkI7IG-48">
          <mxGeometry x="620" y="330" width="140" height="150" as="geometry" />
        </mxCell>
        <mxCell id="FrTpG5TBYNztIclUgN3H-21" value="Categeroy&lt;br&gt;Pruducts&lt;br&gt;Ranking&lt;br&gt;Medicins" style="text;html=1;align=center;verticalAlign=middle;resizable=0;points=[];autosize=1;strokeColor=none;fillColor=none;" vertex="1" parent="FrTpG5TBYNztIclUgN3H-18">
          <mxGeometry x="35" y="60" width="70" height="60" as="geometry" />
        </mxCell>
        <mxCell id="FrTpG5TBYNztIclUgN3H-20" style="edgeStyle=orthogonalEdgeStyle;rounded=0;orthogonalLoop=1;jettySize=auto;html=1;entryX=0;entryY=0.5;entryDx=0;entryDy=0;" edge="1" parent="Qq_WGgC-rXSd1wwkI7IG-48" source="FrTpG5TBYNztIclUgN3H-14" target="FrTpG5TBYNztIclUgN3H-18">
          <mxGeometry relative="1" as="geometry">
            <Array as="points">
              <mxPoint x="400" y="405" />
              <mxPoint x="400" y="405" />
            </Array>
          </mxGeometry>
        </mxCell>
        <mxCell id="FrTpG5TBYNztIclUgN3H-23" value="Login/Registr" style="text;html=1;align=center;verticalAlign=middle;resizable=0;points=[];autosize=1;strokeColor=none;fillColor=none;" vertex="1" parent="Qq_WGgC-rXSd1wwkI7IG-48">
          <mxGeometry x="160" y="50" width="90" height="20" as="geometry" />
        </mxCell>
        <mxCell id="FrTpG5TBYNztIclUgN3H-25" value="Guest Mode" style="text;html=1;align=center;verticalAlign=middle;resizable=0;points=[];autosize=1;strokeColor=none;fillColor=none;" vertex="1" parent="Qq_WGgC-rXSd1wwkI7IG-48">
          <mxGeometry x="390" y="120" width="80" height="20" as="geometry" />
        </mxCell>
        <mxCell id="FrTpG5TBYNztIclUgN3H-26" value="Payment" style="swimlane;" vertex="1" parent="Qq_WGgC-rXSd1wwkI7IG-48">
          <mxGeometry x="30" y="350" width="210" height="150" as="geometry" />
        </mxCell>
        <mxCell id="Qq_WGgC-rXSd1wwkI7IG-53" value="Patient" style="shape=umlActor;verticalLabelPosition=bottom;verticalAlign=top;html=1;outlineConnect=0;fillColor=#dae8fc;strokeColor=#6c8ebf;" parent="1" vertex="1">
          <mxGeometry x="175" y="1310" width="50" height="80" as="geometry" />
        </mxCell>
        <mxCell id="Qq_WGgC-rXSd1wwkI7IG-54" value="Doctor" style="shape=actor;whiteSpace=wrap;html=1;fillColor=#008a00;strokeColor=#005700;fontColor=#ffffff;" parent="1" vertex="1">
          <mxGeometry x="615" y="1310" width="60" height="80" as="geometry" />
        </mxCell>
        <mxCell id="Qq_WGgC-rXSd1wwkI7IG-55" value="Server" style="shape=datastore;whiteSpace=wrap;html=1;fillColor=#a20025;fontColor=#ffffff;strokeColor=#6F0000;" parent="1" vertex="1">
          <mxGeometry x="365" y="1320" width="120" height="140" as="geometry" />
        </mxCell>
        <mxCell id="Qq_WGgC-rXSd1wwkI7IG-56" value="" style="endArrow=classic;html=1;rounded=0;" parent="1" edge="1">
          <mxGeometry width="50" height="50" relative="1" as="geometry">
            <mxPoint x="205" y="1430" as="sourcePoint" />
            <mxPoint x="205" y="1470" as="targetPoint" />
          </mxGeometry>
        </mxCell>
        <mxCell id="Qq_WGgC-rXSd1wwkI7IG-57" value="Initable Connection to Hospital" style="rounded=0;whiteSpace=wrap;html=1;" parent="1" vertex="1">
          <mxGeometry x="145" y="1470" width="120" height="30" as="geometry" />
        </mxCell>
        <mxCell id="Qq_WGgC-rXSd1wwkI7IG-58" value="" style="endArrow=classic;html=1;rounded=0;exitX=1;exitY=0.5;exitDx=0;exitDy=0;" parent="1" source="Qq_WGgC-rXSd1wwkI7IG-57" edge="1">
          <mxGeometry width="50" height="50" relative="1" as="geometry">
            <mxPoint x="285" y="1530" as="sourcePoint" />
            <mxPoint x="335" y="1500" as="targetPoint" />
          </mxGeometry>
        </mxCell>
        <mxCell id="Qq_WGgC-rXSd1wwkI7IG-59" value="Receive Connection" style="rounded=0;whiteSpace=wrap;html=1;" parent="1" vertex="1">
          <mxGeometry x="335" y="1480" width="160" height="30" as="geometry" />
        </mxCell>
        <mxCell id="Qq_WGgC-rXSd1wwkI7IG-60" value="" style="endArrow=classic;html=1;rounded=0;exitX=0;exitY=1;exitDx=0;exitDy=0;" parent="1" source="Qq_WGgC-rXSd1wwkI7IG-59" edge="1">
          <mxGeometry width="50" height="50" relative="1" as="geometry">
            <mxPoint x="285" y="1530" as="sourcePoint" />
            <mxPoint x="255" y="1530" as="targetPoint" />
          </mxGeometry>
        </mxCell>
        <mxCell id="Qq_WGgC-rXSd1wwkI7IG-61" value="Give Patient want time" style="rounded=0;whiteSpace=wrap;html=1;" parent="1" vertex="1">
          <mxGeometry x="145" y="1530" width="120" height="30" as="geometry" />
        </mxCell>
        <mxCell id="Qq_WGgC-rXSd1wwkI7IG-62" value="Check avialable Time" style="rounded=0;whiteSpace=wrap;html=1;" parent="1" vertex="1">
          <mxGeometry x="335" y="1550" width="160" height="30" as="geometry" />
        </mxCell>
        <mxCell id="Qq_WGgC-rXSd1wwkI7IG-63" value="" style="endArrow=classic;html=1;rounded=0;exitX=1;exitY=0.5;exitDx=0;exitDy=0;" parent="1" source="Qq_WGgC-rXSd1wwkI7IG-62" edge="1">
          <mxGeometry width="50" height="50" relative="1" as="geometry">
            <mxPoint x="495" y="1610" as="sourcePoint" />
            <mxPoint x="545" y="1580" as="targetPoint" />
          </mxGeometry>
        </mxCell>
        <mxCell id="Qq_WGgC-rXSd1wwkI7IG-64" value="Connect to Patient" style="rounded=0;whiteSpace=wrap;html=1;" parent="1" vertex="1">
          <mxGeometry x="545" y="1560" width="160" height="30" as="geometry" />
        </mxCell>
        <mxCell id="Qq_WGgC-rXSd1wwkI7IG-65" value="" style="endArrow=classic;html=1;rounded=0;exitX=1;exitY=0.5;exitDx=0;exitDy=0;" parent="1" edge="1">
          <mxGeometry width="50" height="50" relative="1" as="geometry">
            <mxPoint x="265" y="1550" as="sourcePoint" />
            <mxPoint x="335" y="1565" as="targetPoint" />
          </mxGeometry>
        </mxCell>
        <mxCell id="Qq_WGgC-rXSd1wwkI7IG-66" value="" style="endArrow=classic;html=1;rounded=0;" parent="1" edge="1">
          <mxGeometry width="50" height="50" relative="1" as="geometry">
            <mxPoint x="615" y="1590" as="sourcePoint" />
            <mxPoint x="615" y="1610" as="targetPoint" />
          </mxGeometry>
        </mxCell>
        <mxCell id="Qq_WGgC-rXSd1wwkI7IG-67" value="Start consultation" style="rounded=0;whiteSpace=wrap;html=1;" parent="1" vertex="1">
          <mxGeometry x="555" y="1610" width="120" height="30" as="geometry" />
        </mxCell>
        <mxCell id="Qq_WGgC-rXSd1wwkI7IG-68" value="" style="endArrow=classic;html=1;rounded=0;" parent="1" edge="1">
          <mxGeometry width="50" height="50" relative="1" as="geometry">
            <mxPoint x="545" y="1629.5" as="sourcePoint" />
            <mxPoint x="265" y="1629.5" as="targetPoint" />
          </mxGeometry>
        </mxCell>
        <mxCell id="Qq_WGgC-rXSd1wwkI7IG-69" value="Describe Symptoms" style="rounded=0;whiteSpace=wrap;html=1;" parent="1" vertex="1">
          <mxGeometry x="145" y="1610" width="120" height="40" as="geometry" />
        </mxCell>
        <mxCell id="Qq_WGgC-rXSd1wwkI7IG-70" value="" style="endArrow=classic;html=1;rounded=0;" parent="1" edge="1">
          <mxGeometry width="50" height="50" relative="1" as="geometry">
            <mxPoint x="195" y="1650" as="sourcePoint" />
            <mxPoint x="615" y="1690" as="targetPoint" />
            <Array as="points">
              <mxPoint x="195" y="1670" />
              <mxPoint x="615" y="1670" />
            </Array>
          </mxGeometry>
        </mxCell>
        <mxCell id="Qq_WGgC-rXSd1wwkI7IG-75" style="edgeStyle=orthogonalEdgeStyle;rounded=0;orthogonalLoop=1;jettySize=auto;html=1;" parent="1" source="Qq_WGgC-rXSd1wwkI7IG-72" target="Qq_WGgC-rXSd1wwkI7IG-73" edge="1">
          <mxGeometry relative="1" as="geometry" />
        </mxCell>
        <mxCell id="Qq_WGgC-rXSd1wwkI7IG-72" value="Make Diagnose" style="rounded=0;whiteSpace=wrap;html=1;" parent="1" vertex="1">
          <mxGeometry x="555" y="1690" width="120" height="30" as="geometry" />
        </mxCell>
        <mxCell id="Qq_WGgC-rXSd1wwkI7IG-74" style="edgeStyle=orthogonalEdgeStyle;rounded=0;orthogonalLoop=1;jettySize=auto;html=1;" parent="1" source="Qq_WGgC-rXSd1wwkI7IG-73" edge="1">
          <mxGeometry relative="1" as="geometry">
            <mxPoint x="505" y="1810" as="targetPoint" />
            <Array as="points">
              <mxPoint x="615" y="1810" />
              <mxPoint x="505" y="1810" />
            </Array>
          </mxGeometry>
        </mxCell>
        <mxCell id="Qq_WGgC-rXSd1wwkI7IG-76" style="edgeStyle=orthogonalEdgeStyle;rounded=0;orthogonalLoop=1;jettySize=auto;html=1;" parent="1" source="Qq_WGgC-rXSd1wwkI7IG-73" edge="1">
          <mxGeometry relative="1" as="geometry">
            <mxPoint x="275" y="1755" as="targetPoint" />
          </mxGeometry>
        </mxCell>
        <mxCell id="Qq_WGgC-rXSd1wwkI7IG-73" value="Prescribe Medicines" style="rounded=0;whiteSpace=wrap;html=1;" parent="1" vertex="1">
          <mxGeometry x="555" y="1740" width="120" height="30" as="geometry" />
        </mxCell>
        <mxCell id="Qq_WGgC-rXSd1wwkI7IG-78" style="edgeStyle=orthogonalEdgeStyle;rounded=0;orthogonalLoop=1;jettySize=auto;html=1;" parent="1" source="Qq_WGgC-rXSd1wwkI7IG-77" edge="1">
          <mxGeometry relative="1" as="geometry">
            <mxPoint x="355" y="1810" as="targetPoint" />
            <Array as="points">
              <mxPoint x="210" y="1810" />
              <mxPoint x="345" y="1810" />
            </Array>
          </mxGeometry>
        </mxCell>
        <mxCell id="Qq_WGgC-rXSd1wwkI7IG-77" value="Save Prescription" style="rounded=0;whiteSpace=wrap;html=1;" parent="1" vertex="1">
          <mxGeometry x="145" y="1740" width="130" height="30" as="geometry" />
        </mxCell>
        <mxCell id="Qq_WGgC-rXSd1wwkI7IG-80" style="edgeStyle=orthogonalEdgeStyle;rounded=0;orthogonalLoop=1;jettySize=auto;html=1;" parent="1" source="Qq_WGgC-rXSd1wwkI7IG-79" edge="1">
          <mxGeometry relative="1" as="geometry">
            <mxPoint x="575" y="1880" as="targetPoint" />
            <Array as="points">
              <mxPoint x="430" y="1850" />
            </Array>
          </mxGeometry>
        </mxCell>
        <mxCell id="Qq_WGgC-rXSd1wwkI7IG-81" style="edgeStyle=orthogonalEdgeStyle;rounded=0;orthogonalLoop=1;jettySize=auto;html=1;" parent="1" source="Qq_WGgC-rXSd1wwkI7IG-79" edge="1">
          <mxGeometry relative="1" as="geometry">
            <mxPoint x="275" y="1880" as="targetPoint" />
            <Array as="points">
              <mxPoint x="430" y="1850" />
            </Array>
          </mxGeometry>
        </mxCell>
        <mxCell id="Qq_WGgC-rXSd1wwkI7IG-79" value="Terminate Consultation" style="rounded=0;whiteSpace=wrap;html=1;" parent="1" vertex="1">
          <mxGeometry x="355" y="1790" width="150" height="40" as="geometry" />
        </mxCell>
        <mxCell id="Qq_WGgC-rXSd1wwkI7IG-84" style="edgeStyle=orthogonalEdgeStyle;rounded=0;orthogonalLoop=1;jettySize=auto;html=1;" parent="1" source="Qq_WGgC-rXSd1wwkI7IG-82" edge="1">
          <mxGeometry relative="1" as="geometry">
            <mxPoint x="425" y="1950" as="targetPoint" />
            <Array as="points">
              <mxPoint x="255" y="1950" />
            </Array>
          </mxGeometry>
        </mxCell>
        <mxCell id="Qq_WGgC-rXSd1wwkI7IG-82" value="&lt;br&gt;Purchase Med." style="rounded=0;whiteSpace=wrap;html=1;" parent="1" vertex="1">
          <mxGeometry x="195" y="1880" width="120" height="40" as="geometry" />
        </mxCell>
        <mxCell id="Qq_WGgC-rXSd1wwkI7IG-85" style="edgeStyle=orthogonalEdgeStyle;rounded=0;orthogonalLoop=1;jettySize=auto;html=1;" parent="1" source="Qq_WGgC-rXSd1wwkI7IG-83" edge="1">
          <mxGeometry relative="1" as="geometry">
            <mxPoint x="425" y="1950" as="targetPoint" />
            <Array as="points">
              <mxPoint x="575" y="1950" />
            </Array>
          </mxGeometry>
        </mxCell>
        <mxCell id="Qq_WGgC-rXSd1wwkI7IG-83" value="Rec Consultation Det." style="rounded=0;whiteSpace=wrap;html=1;" parent="1" vertex="1">
          <mxGeometry x="515" y="1880" width="120" height="40" as="geometry" />
        </mxCell>
        <mxCell id="Qq_WGgC-rXSd1wwkI7IG-86" value="" style="endArrow=classic;html=1;rounded=0;" parent="1" target="Qq_WGgC-rXSd1wwkI7IG-87" edge="1">
          <mxGeometry width="50" height="50" relative="1" as="geometry">
            <mxPoint x="425" y="1950" as="sourcePoint" />
            <mxPoint x="425" y="1990" as="targetPoint" />
            <Array as="points">
              <mxPoint x="425" y="1950" />
            </Array>
          </mxGeometry>
        </mxCell>
        <mxCell id="Qq_WGgC-rXSd1wwkI7IG-87" value="" style="ellipse;shape=doubleEllipse;whiteSpace=wrap;html=1;aspect=fixed;" parent="1" vertex="1">
          <mxGeometry x="405" y="1970" width="40" height="40" as="geometry" />
        </mxCell>
        <mxCell id="FrTpG5TBYNztIclUgN3H-3" value="Name, Surname Age &lt;br&gt;Gender, Email Phone" style="text;html=1;align=center;verticalAlign=middle;resizable=0;points=[];autosize=1;strokeColor=none;fillColor=none;" vertex="1" parent="1">
          <mxGeometry x="95" y="725" width="130" height="30" as="geometry" />
        </mxCell>
        <mxCell id="FrTpG5TBYNztIclUgN3H-6" style="edgeStyle=orthogonalEdgeStyle;rounded=0;orthogonalLoop=1;jettySize=auto;html=1;entryX=1;entryY=0.75;entryDx=0;entryDy=0;" edge="1" parent="1" source="FrTpG5TBYNztIclUgN3H-4" target="Qq_WGgC-rXSd1wwkI7IG-51">
          <mxGeometry relative="1" as="geometry">
            <mxPoint x="680" y="1010" as="targetPoint" />
            <Array as="points">
              <mxPoint x="700" y="818" />
            </Array>
          </mxGeometry>
        </mxCell>
        <mxCell id="FrTpG5TBYNztIclUgN3H-4" value="Name Surname Age Gender &lt;br&gt;Email Phone FIN code&lt;br&gt;Category Rank" style="text;html=1;align=center;verticalAlign=middle;resizable=0;points=[];autosize=1;strokeColor=none;fillColor=none;" vertex="1" parent="1">
          <mxGeometry x="615" y="725" width="170" height="50" as="geometry" />
        </mxCell>
        <mxCell id="FrTpG5TBYNztIclUgN3H-5" style="edgeStyle=orthogonalEdgeStyle;rounded=0;orthogonalLoop=1;jettySize=auto;html=1;" edge="1" parent="1" source="Qq_WGgC-rXSd1wwkI7IG-52">
          <mxGeometry relative="1" as="geometry">
            <mxPoint x="560" y="840" as="targetPoint" />
            <Array as="points">
              <mxPoint x="700" y="840" />
              <mxPoint x="560" y="840" />
            </Array>
          </mxGeometry>
        </mxCell>
        <mxCell id="FrTpG5TBYNztIclUgN3H-11" style="edgeStyle=orthogonalEdgeStyle;rounded=0;orthogonalLoop=1;jettySize=auto;html=1;" edge="1" parent="1" source="Qq_WGgC-rXSd1wwkI7IG-50">
          <mxGeometry relative="1" as="geometry">
            <mxPoint x="270" y="810" as="targetPoint" />
          </mxGeometry>
        </mxCell>
        <mxCell id="FrTpG5TBYNztIclUgN3H-19" style="edgeStyle=orthogonalEdgeStyle;rounded=0;orthogonalLoop=1;jettySize=auto;html=1;" edge="1" parent="1" source="FrTpG5TBYNztIclUgN3H-15">
          <mxGeometry relative="1" as="geometry">
            <mxPoint x="640" y="940" as="targetPoint" />
          </mxGeometry>
        </mxCell>
        <mxCell id="FrTpG5TBYNztIclUgN3H-24" value="Login/Registr" style="text;html=1;align=center;verticalAlign=middle;resizable=0;points=[];autosize=1;strokeColor=none;fillColor=none;" vertex="1" parent="1">
          <mxGeometry x="535" y="610" width="90" height="20" as="geometry" />
        </mxCell>
        <mxCell id="FrTpG5TBYNztIclUgN3H-28" value="CreditCard" style="text;html=1;align=center;verticalAlign=middle;resizable=0;points=[];autosize=1;strokeColor=none;fillColor=none;" vertex="1" parent="1">
          <mxGeometry x="95" y="960" width="70" height="20" as="geometry" />
        </mxCell>
        <mxCell id="FrTpG5TBYNztIclUgN3H-29" value="Text" style="text;html=1;align=center;verticalAlign=middle;resizable=0;points=[];autosize=1;strokeColor=none;fillColor=none;" vertex="1" parent="1">
          <mxGeometry x="160" y="960" width="40" height="20" as="geometry" />
        </mxCell>
        <mxCell id="FrTpG5TBYNztIclUgN3H-30" style="edgeStyle=orthogonalEdgeStyle;rounded=0;orthogonalLoop=1;jettySize=auto;html=1;" edge="1" parent="1" source="FrTpG5TBYNztIclUgN3H-18">
          <mxGeometry relative="1" as="geometry">
            <mxPoint x="260" y="1030" as="targetPoint" />
            <Array as="points">
              <mxPoint x="640" y="1030" />
              <mxPoint x="640" y="1030" />
            </Array>
          </mxGeometry>
        </mxCell>
        <mxCell id="FrTpG5TBYNztIclUgN3H-31" style="edgeStyle=orthogonalEdgeStyle;rounded=0;orthogonalLoop=1;jettySize=auto;html=1;" edge="1" parent="1" source="FrTpG5TBYNztIclUgN3H-26">
          <mxGeometry relative="1" as="geometry">
            <mxPoint x="640" y="990" as="targetPoint" />
            <Array as="points">
              <mxPoint x="640" y="1010" />
            </Array>
          </mxGeometry>
        </mxCell>
        <mxCell id="FrTpG5TBYNztIclUgN3H-32" style="edgeStyle=orthogonalEdgeStyle;rounded=0;orthogonalLoop=1;jettySize=auto;html=1;entryX=1.006;entryY=0.664;entryDx=0;entryDy=0;entryPerimeter=0;" edge="1" parent="1" source="FrTpG5TBYNztIclUgN3H-26" target="FrTpG5TBYNztIclUgN3H-4">
          <mxGeometry relative="1" as="geometry">
            <Array as="points">
              <mxPoint x="155" y="1070" />
              <mxPoint x="805" y="1070" />
              <mxPoint x="805" y="758" />
            </Array>
          </mxGeometry>
        </mxCell>
        <mxCell id="FrTpG5TBYNztIclUgN3H-33" style="edgeStyle=orthogonalEdgeStyle;rounded=0;orthogonalLoop=1;jettySize=auto;html=1;" edge="1" parent="1" source="FrTpG5TBYNztIclUgN3H-14">
          <mxGeometry relative="1" as="geometry">
            <mxPoint x="260" y="970" as="targetPoint" />
          </mxGeometry>
        </mxCell>
      </root>
    </mxGraphModel>
  </diagram>
</mxfile>
